<svg width="100" height="100" viewBox="0 0 100 100" fill="none" xmlns="http://www.w3.org/2000/svg">
<g clip-path="url(#clip0_162_467)">
<g clip-path="url(#clip1_162_467)">
<path d="M50 100C77.6142 100 100 77.6142 100 50C100 22.3858 77.6142 0 50 0C22.3858 0 0 22.3858 0 50C0 77.6142 22.3858 100 50 100Z" fill="#FF6D6C"/>
<path d="M29.0221 72.5553L55.9937 99.5269C78.7066 96.8455 96.6877 79.0222 99.5268 56.3092L72.3975 29.1799L29.0221 72.5553Z" fill="#FC5A5A"/>
<path d="M73.6593 61.041C75.8675 63.2492 75.8675 67.0347 73.6593 69.2429L69.2429 73.6593C67.0347 75.8675 63.2492 75.8675 61.041 73.6593L26.3407 38.959C24.1325 36.7508 24.1325 32.9653 26.3407 30.7571L30.9149 26.183C33.1231 23.9748 36.9085 23.9748 39.1167 26.183L73.6593 61.041Z" fill="white"/>
<path d="M55.3628 42.5867L42.5868 55.3627L61.0411 73.6593C63.2493 75.8675 67.0348 75.8675 69.243 73.6593L73.8171 69.0851C76.0253 66.8769 76.0253 63.0914 73.8171 60.8832L55.3628 42.5867Z" fill="#D6D6D6"/>
<path d="M61.041 26.3407C63.2492 24.1325 67.0347 24.1325 69.2429 26.3407L73.8171 30.9149C76.0253 33.1231 76.0253 36.9086 73.8171 39.1168L38.959 73.6593C36.7508 75.8675 32.9653 75.8675 30.7571 73.6593L26.3407 69.2429C24.1325 67.0347 24.1325 63.2492 26.3407 61.041L61.041 26.3407Z" fill="white"/>
</g>
</g>
<defs>
<clipPath id="clip0_162_467">
<rect width="100" height="100" fill="white"/>
</clipPath>
<clipPath id="clip1_162_467">
<rect width="100" height="100" fill="white"/>
</clipPath>
</defs>
</svg>
