<svg width="20" height="19" viewBox="0 0 20 19" fill="none" xmlns="http://www.w3.org/2000/svg">
<path fill-rule="evenodd" clip-rule="evenodd" d="M11.0199 18.519H14.277C16.1655 18.519 17.8115 17.2338 18.2695 15.4018L19.9376 8.72976C20.2622 7.43106 19.2799 6.17301 17.9413 6.17301H12.8604L14.205 3.86809C15.2052 2.15338 13.9684 0 11.9832 0H10.8028L6.823 6.96462C6.73416 7.12007 6.68744 7.29598 6.68744 7.4751V15.9107C6.68744 16.2548 6.85936 16.576 7.14558 16.7668L8.73717 17.8278C9.41322 18.2785 10.2075 18.519 11.0199 18.519ZM2.05767 6.17301H3.0865C4.22292 6.17301 5.14417 7.09425 5.14417 8.23067V15.4325C5.14417 16.569 4.22292 17.4902 3.0865 17.4902H2.05767C0.921249 17.4902 0 16.569 0 15.4325V8.23067C0 7.09425 0.921249 6.17301 2.05767 6.17301Z" fill="#4E46B4"/>
</svg>
