<svg width="20" height="20" viewBox="0 0 20 20" fill="none" xmlns="http://www.w3.org/2000/svg">
<path d="M17.9809 0.072563L1.11563 5.29814C0.803214 5.38106 0.525927 5.56265 0.325033 5.81587C0.124138 6.06909 0.0103762 6.38041 0.000676186 6.70349C-0.00902385 7.02658 0.0858569 7.34416 0.271198 7.60898C0.456539 7.87379 0.722433 8.07168 1.02931 8.1732L8.67844 10.7362C8.70632 10.7468 8.73182 10.7628 8.75348 10.7833C8.77513 10.8038 8.7925 10.8284 8.80459 10.8557L11.6199 18.1596C11.7338 18.453 11.9349 18.7045 12.1961 18.8802C12.4572 19.0558 12.7659 19.1473 13.0807 19.1423H13.1205C13.4405 19.1413 13.7521 19.0393 14.0108 18.851C14.2695 18.6626 14.4621 18.3974 14.5614 18.0932L19.9264 1.98484C20.0105 1.72694 20.0228 1.451 19.962 1.18663C19.9011 0.922262 19.7695 0.679446 19.5811 0.484235C19.3796 0.272711 19.1229 0.121984 18.84 0.0492059C18.5571 -0.0235725 18.2594 -0.0154799 17.9809 0.072563Z" fill="#4E46B4"/>
</svg>
